P3
# CREATOR: GIMP PNM Filter Version 1.1
60 60
255
255
0
255
255
0
255
255
0
255
255
0
255
255
0
255
255
0
255
255
0
255
255
0
255
255
0
255
255
0
255
255
0
255
255
0
255
255
0
255
255
0
255
255
0
255
255
0
255
255
0
255
255
0
255
255
0
255
255
0
255
255
0
255
255
0
255
255
0
255
255
0
255
255
0
255
255
0
255
255
0
255
255
0
255
255
0
255
255
0
255
255
0
255
255
0
255
255
0
255
255
0
255
255
0
255
255
0
255
255
0
255
255
0
255
255
0
255
255
0
255
255
0
255
255
0
255
255
0
255
255
0
255
255
0
255
255
0
255
255
0
255
255
0
255
255
0
255
255
0
255
255
0
255
255
0
255
255
0
255
255
0
255
255
0
255
255
0
255
255
0
255
255
0
255
255
0
255
255
0
255
255
0
255
255
0
255
255
0
255
255
0
255
255
0
255
255
0
255
255
0
255
255
0
255
255
0
255
255
0
255
255
0
255
255
0
255
255
0
255
255
0
255
255
0
255
255
0
255
255
0
255
255
0
255
255
0
255
255
0
255
255
0
255
255
0
255
255
0
255
255
0
255
255
0
255
233
233
233
233
233
233
220
220
220
212
212
212
212
212
212
204
204
204
212
212
212
220
220
220
233
233
233
255
0
255
255
0
255
255
0
255
255
0
255
255
0
255
255
0
255
255
0
255
255
0
255
255
0
255
255
0
255
255
0
255
255
0
255
255
0
255
255
0
255
255
0
255
255
0
255
255
0
255
255
0
255
255
0
255
255
0
255
255
0
255
255
0
255
255
0
255
255
0
255
255
0
255
255
0
255
255
0
255
255
0
255
255
0
255
255
0
255
255
0
255
255
0
255
255
0
255
255
0
255
255
0
255
255
0
255
255
0
255
255
0
255
255
0
255
255
0
255
255
0
255
255
0
255
255
0
255
255
0
255
255
0
255
255
0
255
255
0
255
233
233
233
220
220
220
212
212
212
204
204
204
196
196
196
196
196
196
196
196
196
196
196
196
187
187
187
187
187
187
179
179
179
179
179
179
179
179
179
172
172
172
179
179
179
196
196
196
212
212
212
255
0
255
255
0
255
255
0
255
255
0
255
255
0
255
255
0
255
255
0
255
255
0
255
255
0
255
255
0
255
255
0
255
255
0
255
255
0
255
255
0
255
255
0
255
255
0
255
255
0
255
255
0
255
255
0
255
255
0
255
255
0
255
255
0
255
255
0
255
255
0
255
255
0
255
255
0
255
255
0
255
255
0
255
255
0
255
255
0
255
255
0
255
255
0
255
255
0
255
255
0
255
255
0
255
255
0
255
255
0
255
255
0
255
255
0
255
255
0
255
255
0
255
227
227
227
220
220
220
212
212
212
212
212
212
204
204
204
204
204
204
196
196
196
196
196
196
196
196
196
196
196
196
187
187
187
187
187
187
187
187
187
179
179
179
179
179
179
172
172
172
164
164
164
155
155
155
148
148
148
140
140
140
155
155
155
204
204
204
227
227
227
255
0
255
255
0
255
255
0
255
255
0
255
255
0
255
255
0
255
255
0
255
255
0
255
255
0
255
255
0
255
255
0
255
255
0
255
255
0
255
255
0
255
255
0
255
255
0
255
255
0
255
255
0
255
255
0
255
255
0
255
255
0
255
255
0
255
255
0
255
255
0
255
255
0
255
255
0
255
255
0
255
255
0
255
255
0
255
255
0
255
255
0
255
255
0
255
255
0
255
255
0
255
255
0
255
164
164
164
204
204
204
212
212
212
212
212
212
220
220
220
227
227
227
220
220
220
220
220
220
212
212
212
204
204
204
204
204
204
204
204
204
196
196
196
196
196
196
196
196
196
196
196
196
187
187
187
172
172
172
164
164
164
140
140
140
124
124
124
140
140
140
140
140
140
140
140
140
116
116
116
164
164
164
255
0
255
255
0
255
255
0
255
255
0
255
255
0
255
255
0
255
255
0
255
255
0
255
255
0
255
255
0
255
255
0
255
255
0
255
255
0
255
255
0
255
255
0
255
255
0
255
255
0
255
255
0
255
255
0
255
255
0
255
255
0
255
255
0
255
255
0
255
255
0
255
255
0
255
255
0
255
255
0
255
255
0
255
255
0
255
255
0
255
255
0
255
255
0
255
227
227
227
212
212
212
212
212
212
212
212
212
204
204
204
204
204
204
196
196
196
187
187
187
155
155
155
107
107
107
100
100
100
76
76
76
76
76
76
76
76
76
52
52
52
52
52
52
52
52
52
68
68
68
84
84
84
84
84
84
107
107
107
164
164
164
187
187
187
179
179
179
164
164
164
155
155
155
155
155
155
148
148
148
148
148
148
227
227
227
255
0
255
255
0
255
255
0
255
255
0
255
255
0
255
255
0
255
255
0
255
255
0
255
255
0
255
255
0
255
255
0
255
255
0
255
255
0
255
255
0
255
255
0
255
255
0
255
255
0
255
255
0
255
255
0
255
255
0
255
255
0
255
255
0
255
255
0
255
255
0
255
255
0
255
255
0
255
255
0
255
255
0
255
255
0
255
220
220
220
220
220
220
220
220
220
220
220
220
220
220
220
220
220
220
212
212
212
196
196
196
116
116
116
10
10
10
10
10
10
10
10
10
10
10
10
10
10
10
10
10
10
10
10
10
10
10
10
10
10
10
10
10
10
10
10
10
6
6
6
6
6
6
100
100
100
204
204
204
179
179
179
164
164
164
148
148
148
148
148
148
140
140
140
140
140
140
132
132
132
196
196
196
255
0
255
255
0
255
255
0
255
255
0
255
255
0
255
255
0
255
255
0
255
255
0
255
255
0
255
255
0
255
255
0
255
255
0
255
255
0
255
255
0
255
255
0
255
255
0
255
255
0
255
255
0
255
255
0
255
255
0
255
255
0
255
255
0
255
255
0
255
255
0
255
255
0
255
255
0
255
233
233
233
220
220
220
220
220
220
220
220
220
220
220
220
220
220
220
220
220
220
220
220
220
212
212
212
172
172
172
28
28
28
10
10
10
10
10
10
10
10
10
10
10
10
10
10
10
10
10
10
10
10
10
10
10
10
10
10
10
10
10
10
10
10
10
10
10
10
6
6
6
6
6
6
164
164
164
187
187
187
172
172
172
155
155
155
148
148
148
140
140
140
140
140
140
132
132
132
124
124
124
164
164
164
233
233
233
255
0
255
255
0
255
255
0
255
255
0
255
255
0
255
255
0
255
255
0
255
255
0
255
255
0
255
255
0
255
255
0
255
255
0
255
255
0
255
255
0
255
255
0
255
255
0
255
255
0
255
255
0
255
255
0
255
255
0
255
255
0
255
255
0
255
255
0
255
227
227
227
220
220
220
227
227
227
227
227
227
227
227
227
227
227
227
227
227
227
220
220
220
220
220
220
204
204
204
68
68
68
10
10
10
10
10
10
10
10
10
10
10
10
10
10
10
10
10
10
10
10
10
10
10
10
10
10
10
10
10
10
10
10
10
10
10
10
10
10
10
10
10
10
6
6
6
76
76
76
196
196
196
179
179
179
164
164
164
155
155
155
148
148
148
140
140
140
132
132
132
124
124
124
124
124
124
124
124
124
220
220
220
255
0
255
255
0
255
255
0
255
255
0
255
255
0
255
255
0
255
255
0
255
255
0
255
255
0
255
255
0
255
255
0
255
255
0
255
255
0
255
255
0
255
255
0
255
255
0
255
255
0
255
255
0
255
255
0
255
255
0
255
255
0
255
227
227
227
220
220
220
227
227
227
227
227
227
227
227
227
227
227
227
227
227
227
227
227
227
220
220
220
220
220
220
179
179
179
10
10
10
10
10
10
10
10
10
10
10
10
10
10
10
10
10
10
10
10
10
10
10
10
10
10
10
10
10
10
10
10
10
10
10
10
10
10
10
10
10
10
10
10
10
6
6
6
6
6
6
140
140
140
179
179
179
164
164
164
155
155
155
148
148
148
148
148
148
140
140
140
132
132
132
124
124
124
116
116
116
107
107
107
196
196
196
255
0
255
255
0
255
255
0
255
255
0
255
255
0
255
255
0
255
255
0
255
255
0
255
255
0
255
255
0
255
255
0
255
255
0
255
255
0
255
255
0
255
255
0
255
255
0
255
255
0
255
255
0
255
255
0
255
220
220
220
227
227
227
227
227
227
227
227
227
233
233
233
227
227
227
227
227
227
227
227
227
227
227
227
220
220
220
204
204
204
68
68
68
10
10
10
10
10
10
10
10
10
10
10
10
10
10
10
10
10
10
10
10
10
10
10
10
10
10
10
10
10
10
10
10
10
10
10
10
10
10
10
10
10
10
10
10
10
6
6
6
6
6
6
76
76
76
196
196
196
179
179
179
164
164
164
155
155
155
148
148
148
140
140
140
132
132
132
124
124
124
116
116
116
107
107
107
100
100
100
172
172
172
255
0
255
255
0
255
255
0
255
255
0
255
255
0
255
255
0
255
255
0
255
255
0
255
255
0
255
255
0
255
255
0
255
255
0
255
255
0
255
255
0
255
255
0
255
255
0
255
255
0
255
227
227
227
227
227
227
227
227
227
233
233
233
233
233
233
233
233
233
233
233
233
227
227
227
227
227
227
220
220
220
212
212
212
172
172
172
10
10
10
10
10
10
10
10
10
10
10
10
10
10
10
10
10
10
10
10
10
10
10
10
10
10
10
10
10
10
10
10
10
10
10
10
10
10
10
10
10
10
10
10
10
10
10
10
10
10
10
6
6
6
6
6
6
140
140
140
187
187
187
172
172
172
155
155
155
148
148
148
140
140
140
132
132
132
124
124
124
116
116
116
107
107
107
100
100
100
84
84
84
212
212
212
255
0
255
255
0
255
255
0
255
255
0
255
255
0
255
255
0
255
255
0
255
255
0
255
255
0
255
255
0
255
255
0
255
255
0
255
255
0
255
255
0
255
255
0
255
227
227
227
220
220
220
227
227
227
233
233
233
233
233
233
233
233
233
233
233
233
233
233
233
233
233
233
227
227
227
220
220
220
204
204
204
68
68
68
10
10
10
10
10
10
10
10
10
10
10
10
10
10
10
10
10
10
10
10
10
10
10
10
10
10
10
10
10
10
10
10
10
10
10
10
10
10
10
10
10
10
10
10
10
10
10
10
10
10
10
6
6
6
6
6
6
76
76
76
196
196
196
179
179
179
164
164
164
148
148
148
140
140
140
132
132
132
124
124
124
116
116
116
107
107
107
100
100
100
91
91
91
116
116
116
255
0
255
255
0
255
255
0
255
255
0
255
255
0
255
255
0
255
255
0
255
255
0
255
255
0
255
255
0
255
255
0
255
255
0
255
255
0
255
255
0
255
255
0
255
220
220
220
227
227
227
233
233
233
233
233
233
233
233
233
233
233
233
233
233
233
233
233
233
227
227
227
233
233
233
227
227
227
196
196
196
28
28
28
10
10
10
18
18
18
10
10
10
10
10
10
10
10
10
10
10
10
10
10
10
10
10
10
10
10
10
10
10
10
10
10
10
10
10
10
10
10
10
10
10
10
10
10
10
10
10
10
10
10
10
10
10
10
6
6
6
6
6
6
204
204
204
187
187
187
164
164
164
148
148
148
140
140
140
132
132
132
124
124
124
124
124
124
116
116
116
100
100
100
91
91
91
76
76
76
172
172
172
255
0
255
255
0
255
255
0
255
255
0
255
255
0
255
255
0
255
255
0
255
255
0
255
255
0
255
255
0
255
255
0
255
255
0
255
255
0
255
227
227
227
227
227
227
227
227
227
233
233
233
233
233
233
233
233
233
233
233
233
233
233
233
233
233
233
227
227
227
227
227
227
204
204
204
124
124
124
10
10
10
10
10
10
28
28
28
28
28
28
10
10
10
10
10
10
10
10
10
10
10
10
10
10
10
10
10
10
10
10
10
10
10
10
10
10
10
10
10
10
10
10
10
10
10
10
10
10
10
6
6
6
10
10
10
6
6
6
6
6
6
132
132
132
187
187
187
172
172
172
155
155
155
140
140
140
132
132
132
124
124
124
124
124
124
116
116
116
107
107
107
91
91
91
84
84
84
76
76
76
233
233
233
255
0
255
255
0
255
255
0
255
255
0
255
255
0
255
255
0
255
255
0
255
255
0
255
255
0
255
255
0
255
255
0
255
255
0
255
220
220
220
227
227
227
233
233
233
233
233
233
233
233
233
233
233
233
233
233
233
233
233
233
227
227
227
220
220
220
204
204
204
196
196
196
164
164
164
39
39
39
10
10
10
10
10
10
10
10
10
10
10
10
10
10
10
10
10
10
10
10
10
10
10
10
10
10
10
10
10
10
10
10
10
10
10
10
10
10
10
10
10
10
10
10
10
6
6
6
6
6
6
6
6
6
6
6
6
6
6
6
116
116
116
179
179
179
172
172
172
155
155
155
140
140
140
132
132
132
132
132
132
124
124
124
116
116
116
107
107
107
100
100
100
84
84
84
68
68
68
132
132
132
255
0
255
255
0
255
255
0
255
255
0
255
255
0
255
255
0
255
255
0
255
255
0
255
255
0
255
255
0
255
255
0
255
227
227
227
227
227
227
227
227
227
233
233
233
233
233
233
233
233
233
233
233
233
233
233
233
227
227
227
220
220
220
204
204
204
212
212
212
227
227
227
220
220
220
187
187
187
140
140
140
28
28
28
10
10
10
10
10
10
10
10
10
10
10
10
10
10
10
10
10
10
10
10
10
10
10
10
10
10
10
10
10
10
10
10
10
10
10
10
10
10
10
6
6
6
6
6
6
6
6
6
91
91
91
187
187
187
172
172
172
164
164
164
155
155
155
148
148
148
140
140
140
140
140
140
132
132
132
124
124
124
116
116
116
107
107
107
100
100
100
84
84
84
76
76
76
60
60
60
196
196
196
255
0
255
255
0
255
255
0
255
255
0
255
255
0
255
255
0
255
255
0
255
255
0
255
255
0
255
220
220
220
220
220
220
227
227
227
227
227
227
233
233
233
233
233
233
233
233
233
227
227
227
227
227
227
212
212
212
212
212
212
227
227
227
227
227
227
227
227
227
233
233
233
220
220
220
212
212
212
179
179
179
76
76
76
10
10
10
10
10
10
10
10
10
10
10
10
10
10
10
10
10
10
10
10
10
10
10
10
10
10
10
6
6
6
6
6
6
6
6
6
6
6
6
68
68
68
179
179
179
196
196
196
187
187
187
172
172
172
164
164
164
148
148
148
132
132
132
132
132
132
140
140
140
132
132
132
124
124
124
124
124
124
116
116
116
100
100
100
84
84
84
76
76
76
60
60
60
116
116
116
255
0
255
255
0
255
255
0
255
255
0
255
255
0
255
255
0
255
255
0
255
255
0
255
255
0
255
204
204
204
220
220
220
227
227
227
227
227
227
233
233
233
233
233
233
227
227
227
220
220
220
220
220
220
220
220
220
233
233
233
233
233
233
233
233
233
227
227
227
244
244
244
233
233
233
212
212
212
212
212
212
204
204
204
179
179
179
52
52
52
10
10
10
10
10
10
10
10
10
10
10
10
10
10
10
10
10
10
10
10
10
6
6
6
6
6
6
52
52
52
140
140
140
196
196
196
187
187
187
187
187
187
179
179
179
172
172
172
155
155
155
148
148
148
132
132
132
124
124
124
116
116
116
132
132
132
132
132
132
124
124
124
116
116
116
107
107
107
84
84
84
68
68
68
60
60
60
39
39
39
196
196
196
255
0
255
255
0
255
255
0
255
255
0
255
255
0
255
255
0
255
255
0
255
255
0
255
187
187
187
220
220
220
220
220
220
227
227
227
227
227
227
227
227
227
220
220
220
212
212
212
233
233
233
233
233
233
233
233
233
233
233
233
227
227
227
227
227
227
220
220
220
220
220
220
220
220
220
212
212
212
212
212
212
204
204
204
204
204
204
132
132
132
28
28
28
10
10
10
10
10
10
10
10
10
10
10
10
6
6
6
6
6
6
116
116
116
204
204
204
196
196
196
187
187
187
187
187
187
179
179
179
172
172
172
164
164
164
155
155
155
148
148
148
140
140
140
132
132
132
124
124
124
116
116
116
124
124
124
124
124
124
124
124
124
107
107
107
84
84
84
60
60
60
52
52
52
39
39
39
132
132
132
255
0
255
255
0
255
255
0
255
255
0
255
255
0
255
255
0
255
255
0
255
91
91
91
28
28
28
155
155
155
212
212
212
220
220
220
220
220
220
204
204
204
212
212
212
233
233
233
233
233
233
233
233
233
227
227
227
227
227
227
227
227
227
227
227
227
220
220
220
220
220
220
220
220
220
212
212
212
212
212
212
212
212
212
204
204
204
204
204
204
172
172
172
60
60
60
6
6
6
6
6
6
6
6
6
76
76
76
187
187
187
204
204
204
196
196
196
187
187
187
179
179
179
179
179
179
172
172
172
164
164
164
164
164
164
155
155
155
148
148
148
140
140
140
132
132
132
132
132
132
124
124
124
116
116
116
116
116
116
116
116
116
100
100
100
76
76
76
60
60
60
52
52
52
18
18
18
18
18
18
255
0
255
255
0
255
255
0
255
255
0
255
255
0
255
255
0
255
255
0
255
39
39
39
10
10
10
10
10
10
107
107
107
204
204
204
196
196
196
220
220
220
233
233
233
233
233
233
233
233
233
227
227
227
227
227
227
227
227
227
227
227
227
220
220
220
220
220
220
220
220
220
220
220
220
212
212
212
212
212
212
212
212
212
212
212
212
204
204
204
196
196
196
179
179
179
116
116
116
39
39
39
164
164
164
220
220
220
204
204
204
196
196
196
187
187
187
179
179
179
179
179
179
172
172
172
164
164
164
164
164
164
164
164
164
155
155
155
148
148
148
140
140
140
132
132
132
132
132
132
124
124
124
116
116
116
116
116
116
100
100
100
91
91
91
84
84
84
52
52
52
6
6
6
6
6
6
6
6
6
179
179
179
255
0
255
255
0
255
255
0
255
255
0
255
255
0
255
220
220
220
10
10
10
10
10
10
10
10
10
10
10
10
39
39
39
212
212
212
233
233
233
233
233
233
227
227
227
227
227
227
227
227
227
227
227
227
227
227
227
220
220
220
220
220
220
220
220
220
220
220
220
212
212
212
212
212
212
212
212
212
212
212
212
212
212
212
204
204
204
196
196
196
187
187
187
164
164
164
179
179
179
220
220
220
212
212
212
204
204
204
187
187
187
179
179
179
179
179
179
172
172
172
172
172
172
164
164
164
164
164
164
155
155
155
155
155
155
148
148
148
140
140
140
132
132
132
132
132
132
124
124
124
124
124
124
116
116
116
100
100
100
76
76
76
39
39
39
6
6
6
6
6
6
6
6
6
6
6
6
124
124
124
255
0
255
255
0
255
255
0
255
255
0
255
255
0
255
148
148
148
10
10
10
10
10
10
10
10
10
10
10
10
39
39
39
227
227
227
227
227
227
227
227
227
227
227
227
227
227
227
227
227
227
227
227
227
227
227
227
220
220
220
220
220
220
220
220
220
212
212
212
212
212
212
212
212
212
212
212
212
212
212
212
204
204
204
204
204
204
196
196
196
179
179
179
164
164
164
179
179
179
220
220
220
204
204
204
196
196
196
179
179
179
179
179
179
172
172
172
172
172
172
164
164
164
164
164
164
164
164
164
155
155
155
155
155
155
148
148
148
140
140
140
132
132
132
132
132
132
124
124
124
116
116
116
116
116
116
100
100
100
76
76
76
18
18
18
6
6
6
6
6
6
6
6
6
6
6
6
84
84
84
255
0
255
255
0
255
255
0
255
255
0
255
255
0
255
84
84
84
10
10
10
10
10
10
10
10
10
10
10
10
52
52
52
220
220
220
227
227
227
227
227
227
227
227
227
227
227
227
227
227
227
227
227
227
220
220
220
220
220
220
220
220
220
220
220
220
212
212
212
212
212
212
212
212
212
212
212
212
204
204
204
204
204
204
196
196
196
187
187
187
179
179
179
164
164
164
172
172
172
212
212
212
204
204
204
187
187
187
179
179
179
172
172
172
172
172
172
172
172
172
164
164
164
164
164
164
164
164
164
155
155
155
148
148
148
148
148
148
140
140
140
132
132
132
124
124
124
124
124
124
116
116
116
116
116
116
100
100
100
76
76
76
28
28
28
6
6
6
6
6
6
6
6
6
6
6
6
6
6
6
255
0
255
255
0
255
255
0
255
255
0
255
255
0
255
39
39
39
10
10
10
10
10
10
10
10
10
10
10
10
52
52
52
220
220
220
220
220
220
220
220
220
227
227
227
227
227
227
220
220
220
220
220
220
220
220
220
220
220
220
220
220
220
212
212
212
212
212
212
212
212
212
204
204
204
204
204
204
204
204
204
204
204
204
196
196
196
187
187
187
172
172
172
164
164
164
164
164
164
204
204
204
196
196
196
187
187
187
179
179
179
172
172
172
172
172
172
172
172
172
164
164
164
164
164
164
155
155
155
155
155
155
148
148
148
140
140
140
140
140
140
132
132
132
124
124
124
124
124
124
116
116
116
107
107
107
100
100
100
76
76
76
28
28
28
6
6
6
6
6
6
6
6
6
6
6
6
6
6
6
233
233
233
255
0
255
255
0
255
255
0
255
227
227
227
10
10
10
10
10
10
10
10
10
10
10
10
10
10
10
76
76
76
220
220
220
220
220
220
220
220
220
220
220
220
220
220
220
220
220
220
220
220
220
220
220
220
220
220
220
212
212
212
212
212
212
212
212
212
212
212
212
204
204
204
204
204
204
204
204
204
196
196
196
196
196
196
187
187
187
172
172
172
164
164
164
164
164
164
204
204
204
196
196
196
187
187
187
179
179
179
172
172
172
172
172
172
164
164
164
164
164
164
164
164
164
155
155
155
155
155
155
148
148
148
140
140
140
132
132
132
132
132
132
124
124
124
116
116
116
116
116
116
107
107
107
100
100
100
76
76
76
39
39
39
6
6
6
6
6
6
6
6
6
6
6
6
6
6
6
172
172
172
255
0
255
255
0
255
255
0
255
196
196
196
10
10
10
10
10
10
10
10
10
10
10
10
10
10
10
100
100
100
220
220
220
220
220
220
220
220
220
220
220
220
220
220
220
220
220
220
220
220
220
212
212
212
212
212
212
212
212
212
212
212
212
204
204
204
204
204
204
204
204
204
204
204
204
196
196
196
196
196
196
196
196
196
187
187
187
172
172
172
164
164
164
164
164
164
204
204
204
196
196
196
187
187
187
172
172
172
172
172
172
172
172
172
164
164
164
164
164
164
155
155
155
155
155
155
148
148
148
148
148
148
140
140
140
132
132
132
124
124
124
124
124
124
116
116
116
107
107
107
100
100
100
91
91
91
76
76
76
39
39
39
6
6
6
6
6
6
6
6
6
6
6
6
6
6
6
140
140
140
255
0
255
255
0
255
255
0
255
196
196
196
10
10
10
10
10
10
10
10
10
10
10
10
10
10
10
100
100
100
212
212
212
220
220
220
220
220
220
220
220
220
220
220
220
212
212
212
212
212
212
212
212
212
212
212
212
212
212
212
204
204
204
204
204
204
204
204
204
204
204
204
196
196
196
196
196
196
196
196
196
196
196
196
187
187
187
179
179
179
164
164
164
164
164
164
196
196
196
187
187
187
179
179
179
172
172
172
172
172
172
164
164
164
164
164
164
164
164
164
155
155
155
155
155
155
148
148
148
140
140
140
140
140
140
132
132
132
124
124
124
116
116
116
116
116
116
107
107
107
100
100
100
91
91
91
76
76
76
39
39
39
6
6
6
6
6
6
6
6
6
6
6
6
6
6
6
116
116
116
255
0
255
255
0
255
255
0
255
172
172
172
10
10
10
10
10
10
10
10
10
10
10
10
10
10
10
100
100
100
212
212
212
212
212
212
212
212
212
212
212
212
212
212
212
212
212
212
212
212
212
212
212
212
212
212
212
204
204
204
204
204
204
204
204
204
204
204
204
196
196
196
196
196
196
196
196
196
196
196
196
187
187
187
179
179
179
172
172
172
164
164
164
164
164
164
196
196
196
187
187
187
179
179
179
172
172
172
172
172
172
164
164
164
164
164
164
155
155
155
155
155
155
148
148
148
148
148
148
140
140
140
132
132
132
132
132
132
124
124
124
116
116
116
107
107
107
107
107
107
100
100
100
91
91
91
76
76
76
39
39
39
6
6
6
6
6
6
6
6
6
6
6
6
6
6
6
116
116
116
255
0
255
255
0
255
255
0
255
172
172
172
10
10
10
10
10
10
10
10
10
10
10
10
10
10
10
100
100
100
212
212
212
212
212
212
212
212
212
212
212
212
212
212
212
212
212
212
212
212
212
204
204
204
204
204
204
204
204
204
204
204
204
196
196
196
196
196
196
196
196
196
196
196
196
196
196
196
196
196
196
187
187
187
179
179
179
172
172
172
155
155
155
164
164
164
196
196
196
187
187
187
179
179
179
172
172
172
164
164
164
164
164
164
155
155
155
155
155
155
148
148
148
148
148
148
140
140
140
132
132
132
132
132
132
124
124
124
116
116
116
116
116
116
107
107
107
100
100
100
100
100
100
91
91
91
76
76
76
39
39
39
6
6
6
6
6
6
6
6
6
6
6
6
6
6
6
116
116
116
255
0
255
255
0
255
255
0
255
227
227
227
10
10
10
10
10
10
10
10
10
10
10
10
10
10
10
76
76
76
212
212
212
212
212
212
212
212
212
212
212
212
212
212
212
212
212
212
204
204
204
204
204
204
204
204
204
204
204
204
196
196
196
196
196
196
196
196
196
196
196
196
196
196
196
196
196
196
187
187
187
187
187
187
179
179
179
172
172
172
155
155
155
164
164
164
196
196
196
187
187
187
179
179
179
172
172
172
164
164
164
164
164
164
155
155
155
155
155
155
148
148
148
140
140
140
140
140
140
132
132
132
124
124
124
124
124
124
116
116
116
107
107
107
107
107
107
100
100
100
91
91
91
91
91
91
76
76
76
39
39
39
6
6
6
6
6
6
6
6
6
6
6
6
6
6
6
140
140
140
255
0
255
255
0
255
255
0
255
255
0
255
10
10
10
10
10
10
10
10
10
10
10
10
10
10
10
76
76
76
204
204
204
212
212
212
212
212
212
204
204
204
204
204
204
204
204
204
204
204
204
204
204
204
196
196
196
196
196
196
196
196
196
196
196
196
196
196
196
196
196
196
187
187
187
187
187
187
187
187
187
187
187
187
179
179
179
164
164
164
148
148
148
155
155
155
196
196
196
187
187
187
179
179
179
164
164
164
164
164
164
155
155
155
155
155
155
148
148
148
148
148
148
140
140
140
132
132
132
132
132
132
124
124
124
116
116
116
116
116
116
107
107
107
107
107
107
100
100
100
91
91
91
91
91
91
76
76
76
39
39
39
6
6
6
6
6
6
6
6
6
6
6
6
6
6
6
196
196
196
255
0
255
255
0
255
255
0
255
255
0
255
91
91
91
10
10
10
10
10
10
10
10
10
10
10
10
68
68
68
204
204
204
204
204
204
204
204
204
204
204
204
204
204
204
204
204
204
196
196
196
196
196
196
196
196
196
196
196
196
196
196
196
196
196
196
187
187
187
187
187
187
187
187
187
187
187
187
187
187
187
179
179
179
172
172
172
164
164
164
140
140
140
148
148
148
196
196
196
179
179
179
172
172
172
164
164
164
155
155
155
155
155
155
148
148
148
148
148
148
140
140
140
140
140
140
132
132
132
124
124
124
124
124
124
116
116
116
107
107
107
107
107
107
100
100
100
100
100
100
91
91
91
91
91
91
84
84
84
39
39
39
6
6
6
6
6
6
6
6
6
6
6
6
6
6
6
233
233
233
255
0
255
255
0
255
255
0
255
255
0
255
107
107
107
10
10
10
10
10
10
10
10
10
10
10
10
28
28
28
187
187
187
196
196
196
204
204
204
204
204
204
196
196
196
196
196
196
196
196
196
196
196
196
196
196
196
196
196
196
196
196
196
187
187
187
187
187
187
187
187
187
187
187
187
187
187
187
179
179
179
179
179
179
164
164
164
155
155
155
132
132
132
140
140
140
187
187
187
179
179
179
164
164
164
155
155
155
155
155
155
148
148
148
148
148
148
140
140
140
140
140
140
132
132
132
132
132
132
124
124
124
116
116
116
116
116
116
107
107
107
100
100
100
100
100
100
100
100
100
91
91
91
91
91
91
84
84
84
18
18
18
6
6
6
6
6
6
6
6
6
6
6
6
39
39
39
255
0
255
255
0
255
255
0
255
255
0
255
255
0
255
172
172
172
10
10
10
10
10
10
10
10
10
6
6
6
6
6
6
187
187
187
187
187
187
196
196
196
196
196
196
196
196
196
196
196
196
196
196
196
196
196
196
196
196
196
187
187
187
187
187
187
187
187
187
187
187
187
179
179
179
179
179
179
179
179
179
179
179
179
179
179
179
155
155
155
140
140
140
124
124
124
140
140
140
179
179
179
187
187
187
164
164
164
148
148
148
148
148
148
148
148
148
140
140
140
140
140
140
132
132
132
132
132
132
124
124
124
124
124
124
116
116
116
107
107
107
107
107
107
100
100
100
100
100
100
100
100
100
100
100
100
91
91
91
84
84
84
28
28
28
6
6
6
6
6
6
6
6
6
6
6
6
91
91
91
255
0
255
255
0
255
255
0
255
255
0
255
255
0
255
255
0
255
6
6
6
6
6
6
6
6
6
52
52
52
179
179
179
212
212
212
179
179
179
179
179
179
187
187
187
187
187
187
196
196
196
196
196
196
196
196
196
187
187
187
187
187
187
187
187
187
187
187
187
179
179
179
179
179
179
179
179
179
179
179
179
179
179
179
164
164
164
140
140
140
124
124
124
91
91
91
52
52
52
124
124
124
164
164
164
148
148
148
140
140
140
140
140
140
140
140
140
140
140
140
132
132
132
132
132
132
132
132
132
124
124
124
116
116
116
116
116
116
107
107
107
100
100
100
100
100
100
100
100
100
100
100
100
100
100
100
91
91
91
107
107
107
84
84
84
18
18
18
6
6
6
6
6
6
6
6
6
155
155
155
255
0
255
255
0
255
255
0
255
255
0
255
255
0
255
255
0
255
68
68
68
6
6
6
76
76
76
204
204
204
212
212
212
220
220
220
212
212
212
164
164
164
172
172
172
179
179
179
179
179
179
187
187
187
187
187
187
187
187
187
187
187
187
179
179
179
179
179
179
179
179
179
172
172
172
164
164
164
164
164
164
148
148
148
140
140
140
124
124
124
68
68
68
10
10
10
10
10
10
10
10
10
68
68
68
132
132
132
132
132
132
132
132
132
132
132
132
132
132
132
132
132
132
132
132
132
124
124
124
124
124
124
116
116
116
107
107
107
107
107
107
100
100
100
100
100
100
100
100
100
100
100
100
100
100
100
124
124
124
107
107
107
84
84
84
68
68
68
39
39
39
6
6
6
10
10
10
233
233
233
255
0
255
255
0
255
255
0
255
255
0
255
255
0
255
255
0
255
172
172
172
91
91
91
196
196
196
196
196
196
196
196
196
204
204
204
204
204
204
212
212
212
172
172
172
164
164
164
172
172
172
179
179
179
179
179
179
187
187
187
187
187
187
179
179
179
172
172
172
164
164
164
164
164
164
155
155
155
148
148
148
132
132
132
84
84
84
39
39
39
10
10
10
10
10
10
10
10
10
6
6
6
6
6
6
18
18
18
84
84
84
124
124
124
132
132
132
124
124
124
124
124
124
124
124
124
124
124
124
116
116
116
116
116
116
107
107
107
107
107
107
107
107
107
100
100
100
100
100
100
116
116
116
124
124
124
107
107
107
91
91
91
84
84
84
76
76
76
68
68
68
39
39
39
60
60
60
255
0
255
255
0
255
255
0
255
255
0
255
255
0
255
255
0
255
255
0
255
227
227
227
187
187
187
187
187
187
187
187
187
187
187
187
187
187
187
196
196
196
196
196
196
204
204
204
187
187
187
164
164
164
164
164
164
172
172
172
172
172
172
179
179
179
172
172
172
155
155
155
148
148
148
148
148
148
140
140
140
124
124
124
39
39
39
10
10
10
10
10
10
10
10
10
10
10
10
10
10
10
6
6
6
6
6
6
6
6
6
6
6
6
39
39
39
116
116
116
124
124
124
124
124
124
124
124
124
116
116
116
116
116
116
107
107
107
107
107
107
107
107
107
107
107
107
100
100
100
116
116
116
116
116
116
100
100
100
100
100
100
91
91
91
84
84
84
76
76
76
76
76
76
60
60
60
140
140
140
255
0
255
255
0
255
255
0
255
255
0
255
255
0
255
255
0
255
255
0
255
255
0
255
196
196
196
179
179
179
179
179
179
179
179
179
179
179
179
179
179
179
187
187
187
196
196
196
196
196
196
196
196
196
164
164
164
155
155
155
155
155
155
164
164
164
155
155
155
140
140
140
132
132
132
124
124
124
84
84
84
10
10
10
10
10
10
10
10
10
10
10
10
28
28
28
18
18
18
6
6
6
6
6
6
6
6
6
6
6
6
6
6
6
6
6
6
18
18
18
68
68
68
124
124
124
124
124
124
124
124
124
116
116
116
116
116
116
107
107
107
107
107
107
116
116
116
124
124
124
107
107
107
100
100
100
100
100
100
100
100
100
91
91
91
91
91
91
84
84
84
76
76
76
60
60
60
233
233
233
255
0
255
255
0
255
255
0
255
255
0
255
255
0
255
255
0
255
255
0
255
255
0
255
220
220
220
164
164
164
172
172
172
172
172
172
172
172
172
172
172
172
179
179
179
179
179
179
187
187
187
196
196
196
204
204
204
179
179
179
140
140
140
148
148
148
140
140
140
132
132
132
84
84
84
39
39
39
10
10
10
10
10
10
10
10
10
10
10
10
10
10
10
18
18
18
6
6
6
6
6
6
6
6
6
6
6
6
6
6
6
6
6
6
6
6
6
6
6
6
6
6
6
18
18
18
84
84
84
124
124
124
116
116
116
116
116
116
116
116
116
140
140
140
132
132
132
107
107
107
100
100
100
100
100
100
100
100
100
100
100
100
91
91
91
91
91
91
84
84
84
76
76
76
132
132
132
255
0
255
255
0
255
255
0
255
255
0
255
255
0
255
255
0
255
255
0
255
255
0
255
255
0
255
255
0
255
179
179
179
164
164
164
164
164
164
172
172
172
172
172
172
172
172
172
172
172
172
179
179
179
187
187
187
187
187
187
196
196
196
187
187
187
164
164
164
107
107
107
52
52
52
10
10
10
10
10
10
10
10
10
6
6
6
10
10
10
6
6
6
6
6
6
6
6
6
6
6
6
6
6
6
6
6
6
6
6
6
6
6
6
6
6
6
6
6
6
6
6
6
6
6
6
6
6
6
6
6
6
28
28
28
76
76
76
148
148
148
164
164
164
132
132
132
107
107
107
107
107
107
100
100
100
100
100
100
100
100
100
100
100
100
91
91
91
91
91
91
84
84
84
91
91
91
233
233
233
255
0
255
255
0
255
255
0
255
255
0
255
255
0
255
255
0
255
255
0
255
255
0
255
255
0
255
255
0
255
227
227
227
148
148
148
155
155
155
164
164
164
164
164
164
164
164
164
164
164
164
172
172
172
172
172
172
179
179
179
179
179
179
179
179
179
179
179
179
107
107
107
10
10
10
10
10
10
10
10
10
6
6
6
6
6
6
6
6
6
6
6
6
6
6
6
6
6
6
6
6
6
6
6
6
6
6
6
6
6
6
6
6
6
6
6
6
6
6
6
6
6
6
6
6
6
6
6
6
6
6
6
6
6
6
84
84
84
155
155
155
132
132
132
107
107
107
107
107
107
107
107
107
100
100
100
100
100
100
100
100
100
100
100
100
91
91
91
91
91
91
84
84
84
196
196
196
255
0
255
255
0
255
255
0
255
255
0
255
255
0
255
255
0
255
255
0
255
255
0
255
255
0
255
255
0
255
255
0
255
255
0
255
187
187
187
148
148
148
155
155
155
164
164
164
164
164
164
164
164
164
164
164
164
164
164
164
164
164
164
164
164
164
164
164
164
164
164
164
148
148
148
6
6
6
6
6
6
6
6
6
6
6
6
6
6
6
6
6
6
6
6
6
6
6
6
6
6
6
6
6
6
6
6
6
6
6
6
6
6
6
6
6
6
6
6
6
6
6
6
6
6
6
6
6
6
6
6
6
6
6
6
6
6
6
148
148
148
132
132
132
116
116
116
107
107
107
107
107
107
107
107
107
107
107
107
100
100
100
100
100
100
100
100
100
91
91
91
84
84
84
100
100
100
255
0
255
255
0
255
255
0
255
255
0
255
255
0
255
255
0
255
255
0
255
255
0
255
255
0
255
255
0
255
255
0
255
255
0
255
255
0
255
255
0
255
148
148
148
148
148
148
155
155
155
155
155
155
155
155
155
155
155
155
155
155
155
155
155
155
155
155
155
155
155
155
148
148
148
140
140
140
39
39
39
6
6
6
6
6
6
6
6
6
6
6
6
6
6
6
6
6
6
6
6
6
6
6
6
6
6
6
6
6
6
6
6
6
6
6
6
6
6
6
6
6
6
6
6
6
6
6
6
6
6
6
6
6
6
6
6
6
18
18
18
140
140
140
116
116
116
116
116
116
107
107
107
107
107
107
107
107
107
107
107
107
100
100
100
100
100
100
91
91
91
91
91
91
84
84
84
212
212
212
255
0
255
255
0
255
255
0
255
255
0
255
255
0
255
255
0
255
255
0
255
255
0
255
255
0
255
255
0
255
255
0
255
255
0
255
255
0
255
255
0
255
212
212
212
132
132
132
140
140
140
148
148
148
148
148
148
148
148
148
148
148
148
148
148
148
148
148
148
148
148
148
140
140
140
132
132
132
84
84
84
6
6
6
6
6
6
6
6
6
6
6
6
6
6
6
6
6
6
6
6
6
6
6
6
6
6
6
6
6
6
6
6
6
6
6
6
6
6
6
6
6
6
6
6
6
6
6
6
6
6
6
6
6
6
6
6
6
100
100
100
124
124
124
116
116
116
116
116
116
107
107
107
107
107
107
107
107
107
107
107
107
100
100
100
100
100
100
91
91
91
84
84
84
179
179
179
255
0
255
255
0
255
255
0
255
255
0
255
255
0
255
255
0
255
255
0
255
255
0
255
255
0
255
255
0
255
255
0
255
255
0
255
255
0
255
255
0
255
255
0
255
255
0
255
196
196
196
124
124
124
132
132
132
140
140
140
140
140
140
140
140
140
140
140
140
140
140
140
140
140
140
140
140
140
132
132
132
124
124
124
39
39
39
6
6
6
6
6
6
6
6
6
6
6
6
6
6
6
6
6
6
6
6
6
6
6
6
6
6
6
6
6
6
6
6
6
6
6
6
6
6
6
6
6
6
6
6
6
6
6
6
6
6
6
18
18
18
132
132
132
116
116
116
116
116
116
116
116
116
107
107
107
107
107
107
107
107
107
107
107
107
100
100
100
100
100
100
91
91
91
116
116
116
255
0
255
255
0
255
255
0
255
255
0
255
255
0
255
255
0
255
255
0
255
255
0
255
255
0
255
255
0
255
255
0
255
255
0
255
255
0
255
255
0
255
255
0
255
255
0
255
255
0
255
255
0
255
179
179
179
124
124
124
124
124
124
132
132
132
132
132
132
132
132
132
140
140
140
140
140
140
132
132
132
132
132
132
132
132
132
84
84
84
6
6
6
6
6
6
6
6
6
6
6
6
6
6
6
6
6
6
6
6
6
6
6
6
6
6
6
6
6
6
6
6
6
6
6
6
6
6
6
6
6
6
6
6
6
6
6
6
6
6
6
91
91
91
124
124
124
116
116
116
116
116
116
116
116
116
107
107
107
107
107
107
107
107
107
100
100
100
100
100
100
91
91
91
124
124
124
233
233
233
255
0
255
255
0
255
255
0
255
255
0
255
255
0
255
255
0
255
255
0
255
255
0
255
255
0
255
255
0
255
255
0
255
255
0
255
255
0
255
255
0
255
255
0
255
255
0
255
255
0
255
255
0
255
255
0
255
187
187
187
116
116
116
124
124
124
124
124
124
124
124
124
132
132
132
132
132
132
132
132
132
132
132
132
124
124
124
124
124
124
39
39
39
6
6
6
6
6
6
6
6
6
6
6
6
6
6
6
6
6
6
6
6
6
6
6
6
6
6
6
6
6
6
6
6
6
6
6
6
6
6
6
6
6
6
6
6
6
18
18
18
116
116
116
116
116
116
116
116
116
116
116
116
116
116
116
107
107
107
107
107
107
107
107
107
100
100
100
91
91
91
140
140
140
255
0
255
255
0
255
255
0
255
255
0
255
255
0
255
255
0
255
255
0
255
255
0
255
255
0
255
255
0
255
255
0
255
255
0
255
255
0
255
255
0
255
255
0
255
255
0
255
255
0
255
255
0
255
255
0
255
255
0
255
255
0
255
255
0
255
204
204
204
132
132
132
116
116
116
124
124
124
124
124
124
124
124
124
124
124
124
124
124
124
124
124
124
124
124
124
84
84
84
6
6
6
6
6
6
6
6
6
6
6
6
6
6
6
6
6
6
6
6
6
6
6
6
6
6
6
6
6
6
6
6
6
6
6
6
6
6
6
6
6
6
6
6
6
91
91
91
124
124
124
116
116
116
116
116
116
116
116
116
107
107
107
107
107
107
107
107
107
100
100
100
100
100
100
179
179
179
255
0
255
255
0
255
255
0
255
255
0
255
255
0
255
255
0
255
255
0
255
255
0
255
255
0
255
255
0
255
255
0
255
255
0
255
255
0
255
255
0
255
255
0
255
255
0
255
255
0
255
255
0
255
255
0
255
255
0
255
255
0
255
255
0
255
255
0
255
255
0
255
255
0
255
148
148
148
116
116
116
124
124
124
124
124
124
124
124
124
124
124
124
124
124
124
124
124
124
124
124
124
52
52
52
6
6
6
6
6
6
6
6
6
6
6
6
6
6
6
6
6
6
6
6
6
6
6
6
6
6
6
6
6
6
6
6
6
6
6
6
6
6
6
39
39
39
124
124
124
124
124
124
116
116
116
116
116
116
107
107
107
107
107
107
107
107
107
100
100
100
116
116
116
196
196
196
255
0
255
255
0
255
255
0
255
255
0
255
255
0
255
255
0
255
255
0
255
255
0
255
255
0
255
255
0
255
255
0
255
255
0
255
255
0
255
255
0
255
255
0
255
255
0
255
255
0
255
255
0
255
255
0
255
255
0
255
255
0
255
255
0
255
255
0
255
255
0
255
255
0
255
255
0
255
255
0
255
179
179
179
116
116
116
124
124
124
124
124
124
124
124
124
124
124
124
124
124
124
124
124
124
132
132
132
60
60
60
28
28
28
28
28
28
6
6
6
6
6
6
6
6
6
6
6
6
6
6
6
6
6
6
6
6
6
6
6
6
18
18
18
39
39
39
107
107
107
124
124
124
116
116
116
116
116
116
107
107
107
107
107
107
107
107
107
100
100
100
148
148
148
233
233
233
255
0
255
255
0
255
255
0
255
255
0
255
255
0
255
255
0
255
255
0
255
255
0
255
255
0
255
255
0
255
255
0
255
255
0
255
255
0
255
255
0
255
255
0
255
255
0
255
255
0
255
255
0
255
255
0
255
255
0
255
255
0
255
255
0
255
255
0
255
255
0
255
255
0
255
255
0
255
255
0
255
255
0
255
255
0
255
196
196
196
116
116
116
116
116
116
116
116
116
116
116
116
124
124
124
140
140
140
155
155
155
148
148
148
148
148
148
140
140
140
132
132
132
132
132
132
116
116
116
116
116
116
116
116
116
124
124
124
124
124
124
124
124
124
116
116
116
116
116
116
107
107
107
107
107
107
107
107
107
107
107
107
107
107
107
107
107
107
91
91
91
172
172
172
255
0
255
255
0
255
255
0
255
255
0
255
255
0
255
255
0
255
255
0
255
255
0
255
255
0
255
255
0
255
255
0
255
255
0
255
255
0
255
255
0
255
255
0
255
255
0
255
255
0
255
255
0
255
255
0
255
255
0
255
255
0
255
255
0
255
255
0
255
255
0
255
255
0
255
255
0
255
255
0
255
255
0
255
255
0
255
255
0
255
255
0
255
255
0
255
255
0
255
196
196
196
107
107
107
124
124
124
124
124
124
124
124
124
124
124
124
124
124
124
124
124
124
124
124
124
124
124
124
124
124
124
124
124
124
124
124
124
124
124
124
124
124
124
124
124
124
124
124
124
116
116
116
116
116
116
107
107
107
107
107
107
100
100
100
100
100
100
84
84
84
107
107
107
227
227
227
255
0
255
255
0
255
255
0
255
255
0
255
255
0
255
255
0
255
255
0
255
255
0
255
255
0
255
255
0
255
255
0
255
255
0
255
255
0
255
255
0
255
255
0
255
255
0
255
255
0
255
255
0
255
255
0
255
255
0
255
255
0
255
255
0
255
255
0
255
255
0
255
255
0
255
255
0
255
255
0
255
255
0
255
255
0
255
255
0
255
255
0
255
255
0
255
255
0
255
255
0
255
255
0
255
255
0
255
227
227
227
179
179
179
132
132
132
116
116
116
116
116
116
124
124
124
124
124
124
124
124
124
124
124
124
124
124
124
124
124
124
116
116
116
116
116
116
116
116
116
116
116
116
116
116
116
116
116
116
107
107
107
107
107
107
155
155
155
204
204
204
255
0
255
255
0
255
255
0
255
255
0
255
255
0
255
255
0
255
255
0
255
255
0
255
255
0
255
255
0
255
255
0
255
255
0
255
255
0
255
255
0
255
255
0
255
255
0
255
255
0
255
255
0
255
255
0
255
255
0
255
255
0
255
255
0
255
255
0
255
255
0
255
255
0
255
255
0
255
255
0
255
255
0
255
255
0
255
255
0
255
255
0
255
255
0
255
255
0
255
255
0
255
255
0
255
255
0
255
255
0
255
255
0
255
255
0
255
255
0
255
255
0
255
255
0
255
255
0
255
196
196
196
179
179
179
132
132
132
132
132
132
116
116
116
116
116
116
116
116
116
116
116
116
116
116
116
116
116
116
124
124
124
155
155
155
204
204
204
204
204
204
255
0
255
255
0
255
255
0
255
255
0
255
255
0
255
255
0
255
255
0
255
255
0
255
255
0
255
255
0
255
255
0
255
255
0
255
255
0
255
255
0
255
255
0
255
255
0
255
255
0
255
255
0
255
255
0
255
255
0
255
255
0
255
255
0
255
255
0
255
255
0
255
255
0
255
255
0
255
255
0
255
255
0
255
255
0
255
255
0
255
255
0
255
255
0
255
255
0
255
255
0
255
255
0
255
255
0
255
255
0
255
255
0
255
255
0
255
255
0
255
255
0
255
255
0
255
255
0
255
255
0
255
255
0
255
255
0
255
255
0
255
255
0
255
255
0
255
255
0
255
255
0
255
220
220
220
220
220
220
220
220
220
233
233
233
255
0
255
255
0
255
255
0
255
255
0
255
255
0
255
255
0
255
255
0
255
255
0
255
255
0
255
255
0
255
255
0
255
255
0
255
255
0
255
255
0
255
255
0
255
255
0
255
255
0
255
255
0
255
255
0
255
255
0
255
255
0
255
255
0
255
255
0
255
255
0
255
255
0
255
255
0
255
255
0
255
255
0
255
255
0
255
255
0
255
255
0
255
255
0
255
255
0
255
255
0
255
255
0
255
255
0
255
255
0
255
255
0
255
255
0
255
255
0
255
255
0
255
255
0
255
255
0
255
255
0
255
255
0
255
255
0
255
255
0
255
255
0
255
255
0
255
255
0
255
255
0
255
255
0
255
255
0
255
255
0
255
255
0
255
255
0
255
255
0
255
255
0
255
255
0
255
255
0
255
255
0
255
255
0
255
255
0
255
255
0
255
255
0
255
255
0
255
255
0
255
255
0
255
255
0
255
255
0
255
255
0
255
255
0
255
255
0
255
255
0
255
255
0
255
255
0
255
255
0
255
255
0
255
255
0
255
255
0
255
255
0
255
255
0
255
255
0
255
255
0
255
255
0
255
255
0
255
255
0
255
255
0
255
255
0
255
255
0
255
255
0
255
255
0
255
255
0
255
255
0
255
255
0
255
255
0
255
255
0
255
255
0
255
255
0
255
255
0
255
255
0
255
255
0
255
255
0
255
255
0
255
255
0
255
255
0
255
255
0
255
255
0
255
255
0
255
255
0
255
255
0
255
255
0
255
255
0
255
255
0
255
255
0
255
255
0
255
255
0
255
255
0
255
255
0
255
255
0
255
255
0
255
255
0
255
255
0
255
255
0
255
255
0
255
255
0
255
255
0
255
255
0
255
255
0
255
255
0
255
255
0
255
255
0
255
255
0
255
255
0
255
255
0
255
255
0
255
255
0
255
255
0
255
255
0
255
255
0
255
255
0
255
255
0
255
255
0
255
255
0
255
255
0
255
255
0
255
255
0
255
255
0
255
